<mxfile host="drawio-plugin" modified="2022-06-10T07:53:50.096Z" agent="5.0 (Windows NT 6.2; Win64; x64) AppleWebKit/537.36 (KHTML, like Gecko) Chrome/97.0.4692.45 Safari/537.36" etag="CoDiMyHuH1ZlzUUUtEF0" version="15.5.4" type="embed"><diagram id="IEPhArnREAXxBO-NgwFs" name="Page-1"><mxGraphModel dx="2033" dy="1106" grid="1" gridSize="10" guides="1" tooltips="1" connect="1" arrows="1" fold="1" page="1" pageScale="1" pageWidth="827" pageHeight="1169" background="#FFFFFF" math="0" shadow="0"><root><mxCell id="0"/><mxCell id="1" parent="0"/><mxCell id="TTTDpmGdwki_0RYDSrgb-71" value="«enumeration»&#10;Quarter" style="swimlane;fontStyle=0;childLayout=stackLayout;horizontal=1;startSize=30;horizontalStack=0;resizeParent=1;resizeParentMax=0;resizeLast=0;collapsible=1;marginBottom=0;labelBackgroundColor=none;fontSize=12;fillColor=none;" parent="1" vertex="1"><mxGeometry x="62" y="390" width="145" height="270" as="geometry"><mxRectangle x="20" y="100" width="120" height="30" as="alternateBounds"/></mxGeometry></mxCell><mxCell id="TTTDpmGdwki_0RYDSrgb-72" value="NORTH" style="text;strokeColor=none;fillColor=none;align=left;verticalAlign=middle;spacingLeft=4;spacingRight=4;overflow=hidden;points=[[0,0.5],[1,0.5]];portConstraint=eastwest;rotatable=0;labelBackgroundColor=none;fontSize=12;" parent="TTTDpmGdwki_0RYDSrgb-71" vertex="1"><mxGeometry y="30" width="145" height="30" as="geometry"/></mxCell><mxCell id="TTTDpmGdwki_0RYDSrgb-73" value="SOUTH" style="text;strokeColor=none;fillColor=none;align=left;verticalAlign=middle;spacingLeft=4;spacingRight=4;overflow=hidden;points=[[0,0.5],[1,0.5]];portConstraint=eastwest;rotatable=0;labelBackgroundColor=none;fontSize=12;" parent="TTTDpmGdwki_0RYDSrgb-71" vertex="1"><mxGeometry y="60" width="145" height="30" as="geometry"/></mxCell><mxCell id="TTTDpmGdwki_0RYDSrgb-74" value="EAST" style="text;strokeColor=none;fillColor=none;align=left;verticalAlign=middle;spacingLeft=4;spacingRight=4;overflow=hidden;points=[[0,0.5],[1,0.5]];portConstraint=eastwest;rotatable=0;labelBackgroundColor=none;fontSize=12;" parent="TTTDpmGdwki_0RYDSrgb-71" vertex="1"><mxGeometry y="90" width="145" height="30" as="geometry"/></mxCell><mxCell id="TTTDpmGdwki_0RYDSrgb-75" value="WEST" style="text;strokeColor=none;fillColor=none;align=left;verticalAlign=middle;spacingLeft=4;spacingRight=4;overflow=hidden;points=[[0,0.5],[1,0.5]];portConstraint=eastwest;rotatable=0;labelBackgroundColor=none;fontSize=12;" parent="TTTDpmGdwki_0RYDSrgb-71" vertex="1"><mxGeometry y="120" width="145" height="30" as="geometry"/></mxCell><mxCell id="TTTDpmGdwki_0RYDSrgb-76" value="NORTHEAST" style="text;strokeColor=none;fillColor=none;align=left;verticalAlign=middle;spacingLeft=4;spacingRight=4;overflow=hidden;points=[[0,0.5],[1,0.5]];portConstraint=eastwest;rotatable=0;labelBackgroundColor=none;fontSize=12;" parent="TTTDpmGdwki_0RYDSrgb-71" vertex="1"><mxGeometry y="150" width="145" height="30" as="geometry"/></mxCell><mxCell id="TTTDpmGdwki_0RYDSrgb-77" value="NORTHWEST" style="text;strokeColor=none;fillColor=none;align=left;verticalAlign=middle;spacingLeft=4;spacingRight=4;overflow=hidden;points=[[0,0.5],[1,0.5]];portConstraint=eastwest;rotatable=0;labelBackgroundColor=none;fontSize=12;" parent="TTTDpmGdwki_0RYDSrgb-71" vertex="1"><mxGeometry y="180" width="145" height="30" as="geometry"/></mxCell><mxCell id="TTTDpmGdwki_0RYDSrgb-78" value="SOUTHEAST" style="text;strokeColor=none;fillColor=none;align=left;verticalAlign=middle;spacingLeft=4;spacingRight=4;overflow=hidden;points=[[0,0.5],[1,0.5]];portConstraint=eastwest;rotatable=0;labelBackgroundColor=none;fontSize=12;" parent="TTTDpmGdwki_0RYDSrgb-71" vertex="1"><mxGeometry y="210" width="145" height="30" as="geometry"/></mxCell><mxCell id="TTTDpmGdwki_0RYDSrgb-79" value="SOUTHWEST" style="text;strokeColor=none;fillColor=none;align=left;verticalAlign=middle;spacingLeft=4;spacingRight=4;overflow=hidden;points=[[0,0.5],[1,0.5]];portConstraint=eastwest;rotatable=0;labelBackgroundColor=none;fontSize=12;" parent="TTTDpmGdwki_0RYDSrgb-71" vertex="1"><mxGeometry y="240" width="145" height="30" as="geometry"/></mxCell><mxCell id="TTTDpmGdwki_0RYDSrgb-84" value="«enumeration»&#10;NestBoxType" style="swimlane;fontStyle=0;childLayout=stackLayout;horizontal=1;startSize=40;horizontalStack=0;resizeParent=1;resizeParentMax=0;resizeLast=0;collapsible=1;marginBottom=0;labelBackgroundColor=none;fontSize=12;fillColor=none;verticalAlign=middle;" parent="1" vertex="1"><mxGeometry x="299" y="404" width="170" height="130" as="geometry"><mxRectangle x="20" y="380" width="120" height="40" as="alternateBounds"/></mxGeometry></mxCell><mxCell id="TTTDpmGdwki_0RYDSrgb-85" value="OLD" style="text;strokeColor=none;fillColor=none;align=left;verticalAlign=middle;spacingLeft=4;spacingRight=4;overflow=hidden;points=[[0,0.5],[1,0.5]];portConstraint=eastwest;rotatable=0;labelBackgroundColor=none;fontSize=12;" parent="TTTDpmGdwki_0RYDSrgb-84" vertex="1"><mxGeometry y="40" width="170" height="30" as="geometry"/></mxCell><mxCell id="TTTDpmGdwki_0RYDSrgb-86" value="PUBLIC_WORK_2015" style="text;strokeColor=none;fillColor=none;align=left;verticalAlign=middle;spacingLeft=4;spacingRight=4;overflow=hidden;points=[[0,0.5],[1,0.5]];portConstraint=eastwest;rotatable=0;labelBackgroundColor=none;fontSize=12;" parent="TTTDpmGdwki_0RYDSrgb-84" vertex="1"><mxGeometry y="70" width="170" height="30" as="geometry"/></mxCell><mxCell id="TTTDpmGdwki_0RYDSrgb-87" value="ROLLER_LIFE_PLUS_2017" style="text;strokeColor=none;fillColor=none;align=left;verticalAlign=middle;spacingLeft=4;spacingRight=4;overflow=hidden;points=[[0,0.5],[1,0.5]];portConstraint=eastwest;rotatable=0;labelBackgroundColor=none;fontSize=12;" parent="TTTDpmGdwki_0RYDSrgb-84" vertex="1"><mxGeometry y="100" width="170" height="30" as="geometry"/></mxCell><mxCell id="TTTDpmGdwki_0RYDSrgb-94" value="«enumeration»&#10;Condition" style="swimlane;fontStyle=0;childLayout=stackLayout;horizontal=1;startSize=40;horizontalStack=0;resizeParent=1;resizeParentMax=0;resizeLast=0;collapsible=1;marginBottom=0;labelBackgroundColor=none;fontSize=12;fillColor=none;verticalAlign=middle;" parent="1" vertex="1"><mxGeometry x="611.5" y="440" width="180" height="220" as="geometry"><mxRectangle x="20" y="530" width="120" height="40" as="alternateBounds"/></mxGeometry></mxCell><mxCell id="TTTDpmGdwki_0RYDSrgb-95" value="GOOD" style="text;strokeColor=none;fillColor=none;align=left;verticalAlign=middle;spacingLeft=4;spacingRight=4;overflow=hidden;points=[[0,0.5],[1,0.5]];portConstraint=eastwest;rotatable=0;labelBackgroundColor=none;fontSize=12;" parent="TTTDpmGdwki_0RYDSrgb-94" vertex="1"><mxGeometry y="40" width="180" height="30" as="geometry"/></mxCell><mxCell id="TTTDpmGdwki_0RYDSrgb-96" value="MUST_BE_REPAIRED" style="text;strokeColor=none;fillColor=none;align=left;verticalAlign=middle;spacingLeft=4;spacingRight=4;overflow=hidden;points=[[0,0.5],[1,0.5]];portConstraint=eastwest;rotatable=0;labelBackgroundColor=none;fontSize=12;" parent="TTTDpmGdwki_0RYDSrgb-94" vertex="1"><mxGeometry y="70" width="180" height="30" as="geometry"/></mxCell><mxCell id="TTTDpmGdwki_0RYDSrgb-97" value="MUST_BE_REPLACED" style="text;strokeColor=none;fillColor=none;align=left;verticalAlign=middle;spacingLeft=4;spacingRight=4;overflow=hidden;points=[[0,0.5],[1,0.5]];portConstraint=eastwest;rotatable=0;labelBackgroundColor=none;fontSize=12;" parent="TTTDpmGdwki_0RYDSrgb-94" vertex="1"><mxGeometry y="100" width="180" height="30" as="geometry"/></mxCell><mxCell id="TTTDpmGdwki_0RYDSrgb-98" value="UNSUITABLE_FOR_ROLLER" style="text;strokeColor=none;fillColor=none;align=left;verticalAlign=middle;spacingLeft=4;spacingRight=4;overflow=hidden;points=[[0,0.5],[1,0.5]];portConstraint=eastwest;rotatable=0;labelBackgroundColor=none;fontSize=12;" parent="TTTDpmGdwki_0RYDSrgb-94" vertex="1"><mxGeometry y="130" width="180" height="30" as="geometry"/></mxCell><mxCell id="TTTDpmGdwki_0RYDSrgb-99" value="UNSUITABLE_FOR_NESTING" style="text;strokeColor=none;fillColor=none;align=left;verticalAlign=middle;spacingLeft=4;spacingRight=4;overflow=hidden;points=[[0,0.5],[1,0.5]];portConstraint=eastwest;rotatable=0;labelBackgroundColor=none;fontSize=12;" parent="TTTDpmGdwki_0RYDSrgb-94" vertex="1"><mxGeometry y="160" width="180" height="30" as="geometry"/></mxCell><mxCell id="TTTDpmGdwki_0RYDSrgb-135" value="EXPIRED" style="text;strokeColor=none;fillColor=none;align=left;verticalAlign=middle;spacingLeft=4;spacingRight=4;overflow=hidden;points=[[0,0.5],[1,0.5]];portConstraint=eastwest;rotatable=0;labelBackgroundColor=none;fontSize=12;" parent="TTTDpmGdwki_0RYDSrgb-94" vertex="1"><mxGeometry y="190" width="180" height="30" as="geometry"/></mxCell><mxCell id="TTTDpmGdwki_0RYDSrgb-143" value="&lt;h1 align=&quot;center&quot;&gt;&lt;font style=&quot;font-size: 16px;&quot;&gt;Notes&lt;/font&gt;&lt;/h1&gt;&lt;p style=&quot;font-size: 12px;&quot;&gt;Nestbox lifecycle change should be implemented as an independent model (date, changedValue, oldValue, newValue, description, reporter).&lt;/p&gt;" style="text;html=1;strokeColor=none;fillColor=none;spacing=5;spacingTop=-20;whiteSpace=wrap;overflow=hidden;rounded=0;labelBackgroundColor=none;fontSize=18;" parent="1" vertex="1"><mxGeometry x="2200" y="400" width="211" height="157" as="geometry"/></mxCell><mxCell id="TTTDpmGdwki_0RYDSrgb-164" value="Coordinates" style="swimlane;fontStyle=1;align=center;verticalAlign=top;childLayout=stackLayout;horizontal=1;startSize=26;horizontalStack=0;resizeParent=1;resizeParentMax=0;resizeLast=0;collapsible=1;marginBottom=0;labelBackgroundColor=none;fontSize=12;fillColor=none;" parent="1" vertex="1"><mxGeometry x="24.5" y="70" width="220" height="294" as="geometry"/></mxCell><mxCell id="TTTDpmGdwki_0RYDSrgb-173" value="- MINIMUM_EOV_X: double" style="text;strokeColor=none;fillColor=none;align=left;verticalAlign=top;spacingLeft=4;spacingRight=4;overflow=hidden;rotatable=0;points=[[0,0.5],[1,0.5]];portConstraint=eastwest;labelBackgroundColor=none;fontSize=12;" parent="TTTDpmGdwki_0RYDSrgb-164" vertex="1"><mxGeometry y="26" width="220" height="26" as="geometry"/></mxCell><mxCell id="TTTDpmGdwki_0RYDSrgb-175" value="- MAXIMUM_EOV_X: double" style="text;strokeColor=none;fillColor=none;align=left;verticalAlign=top;spacingLeft=4;spacingRight=4;overflow=hidden;rotatable=0;points=[[0,0.5],[1,0.5]];portConstraint=eastwest;labelBackgroundColor=none;fontSize=12;" parent="TTTDpmGdwki_0RYDSrgb-164" vertex="1"><mxGeometry y="52" width="220" height="26" as="geometry"/></mxCell><mxCell id="TTTDpmGdwki_0RYDSrgb-176" value="- MINIMUM_EOV_Y: double" style="text;strokeColor=none;fillColor=none;align=left;verticalAlign=top;spacingLeft=4;spacingRight=4;overflow=hidden;rotatable=0;points=[[0,0.5],[1,0.5]];portConstraint=eastwest;labelBackgroundColor=none;fontSize=12;" parent="TTTDpmGdwki_0RYDSrgb-164" vertex="1"><mxGeometry y="78" width="220" height="26" as="geometry"/></mxCell><mxCell id="TTTDpmGdwki_0RYDSrgb-177" value="- MAXIMUM_EOV_X: double" style="text;strokeColor=none;fillColor=none;align=left;verticalAlign=top;spacingLeft=4;spacingRight=4;overflow=hidden;rotatable=0;points=[[0,0.5],[1,0.5]];portConstraint=eastwest;labelBackgroundColor=none;fontSize=12;" parent="TTTDpmGdwki_0RYDSrgb-164" vertex="1"><mxGeometry y="104" width="220" height="26" as="geometry"/></mxCell><mxCell id="TTTDpmGdwki_0RYDSrgb-165" value="- EovX: double" style="text;strokeColor=none;fillColor=none;align=left;verticalAlign=top;spacingLeft=4;spacingRight=4;overflow=hidden;rotatable=0;points=[[0,0.5],[1,0.5]];portConstraint=eastwest;labelBackgroundColor=none;fontSize=12;" parent="TTTDpmGdwki_0RYDSrgb-164" vertex="1"><mxGeometry y="130" width="220" height="26" as="geometry"/></mxCell><mxCell id="TTTDpmGdwki_0RYDSrgb-168" value="- EovY: double" style="text;strokeColor=none;fillColor=none;align=left;verticalAlign=top;spacingLeft=4;spacingRight=4;overflow=hidden;rotatable=0;points=[[0,0.5],[1,0.5]];portConstraint=eastwest;labelBackgroundColor=none;fontSize=12;" parent="TTTDpmGdwki_0RYDSrgb-164" vertex="1"><mxGeometry y="156" width="220" height="26" as="geometry"/></mxCell><mxCell id="TTTDpmGdwki_0RYDSrgb-166" value="" style="line;strokeWidth=1;fillColor=none;align=left;verticalAlign=middle;spacingTop=-1;spacingLeft=3;spacingRight=3;rotatable=0;labelPosition=right;points=[];portConstraint=eastwest;labelBackgroundColor=none;fontSize=12;" parent="TTTDpmGdwki_0RYDSrgb-164" vertex="1"><mxGeometry y="182" width="220" height="8" as="geometry"/></mxCell><mxCell id="TTTDpmGdwki_0RYDSrgb-167" value="+ Coordinates(double, double)" style="text;strokeColor=none;fillColor=none;align=left;verticalAlign=top;spacingLeft=4;spacingRight=4;overflow=hidden;rotatable=0;points=[[0,0.5],[1,0.5]];portConstraint=eastwest;labelBackgroundColor=none;fontSize=12;" parent="TTTDpmGdwki_0RYDSrgb-164" vertex="1"><mxGeometry y="190" width="220" height="26" as="geometry"/></mxCell><mxCell id="TTTDpmGdwki_0RYDSrgb-169" value="+ validateCoordinates(double, double)" style="text;strokeColor=none;fillColor=none;align=left;verticalAlign=top;spacingLeft=4;spacingRight=4;overflow=hidden;rotatable=0;points=[[0,0.5],[1,0.5]];portConstraint=eastwest;labelBackgroundColor=none;fontSize=12;" parent="TTTDpmGdwki_0RYDSrgb-164" vertex="1"><mxGeometry y="216" width="220" height="26" as="geometry"/></mxCell><mxCell id="TTTDpmGdwki_0RYDSrgb-170" value="- validateEovX(double)" style="text;strokeColor=none;fillColor=none;align=left;verticalAlign=top;spacingLeft=4;spacingRight=4;overflow=hidden;rotatable=0;points=[[0,0.5],[1,0.5]];portConstraint=eastwest;labelBackgroundColor=none;fontSize=12;" parent="TTTDpmGdwki_0RYDSrgb-164" vertex="1"><mxGeometry y="242" width="220" height="26" as="geometry"/></mxCell><mxCell id="TTTDpmGdwki_0RYDSrgb-172" value="- validateEovY(double)" style="text;strokeColor=none;fillColor=none;align=left;verticalAlign=top;spacingLeft=4;spacingRight=4;overflow=hidden;rotatable=0;points=[[0,0.5],[1,0.5]];portConstraint=eastwest;labelBackgroundColor=none;fontSize=12;" parent="TTTDpmGdwki_0RYDSrgb-164" vertex="1"><mxGeometry y="268" width="220" height="26" as="geometry"/></mxCell><mxCell id="TTTDpmGdwki_0RYDSrgb-178" value="Nesting" style="swimlane;fontStyle=1;align=center;verticalAlign=top;childLayout=stackLayout;horizontal=1;startSize=26;horizontalStack=0;resizeParent=1;resizeParentMax=0;resizeLast=0;collapsible=1;marginBottom=0;labelBackgroundColor=none;fontSize=12;fillColor=none;" parent="1" vertex="1"><mxGeometry x="1312" y="115" width="380" height="216" as="geometry"/></mxCell><mxCell id="TTTDpmGdwki_0RYDSrgb-179" value="- id: Long" style="text;strokeColor=none;fillColor=none;align=left;verticalAlign=top;spacingLeft=4;spacingRight=4;overflow=hidden;rotatable=0;points=[[0,0.5],[1,0.5]];portConstraint=eastwest;labelBackgroundColor=none;fontSize=12;" parent="TTTDpmGdwki_0RYDSrgb-178" vertex="1"><mxGeometry y="26" width="380" height="26" as="geometry"/></mxCell><mxCell id="TTTDpmGdwki_0RYDSrgb-188" value="- nestBoxId: String" style="text;strokeColor=none;fillColor=none;align=left;verticalAlign=top;spacingLeft=4;spacingRight=4;overflow=hidden;rotatable=0;points=[[0,0.5],[1,0.5]];portConstraint=eastwest;labelBackgroundColor=none;fontSize=12;" parent="TTTDpmGdwki_0RYDSrgb-178" vertex="1"><mxGeometry y="52" width="380" height="26" as="geometry"/></mxCell><mxCell id="TTTDpmGdwki_0RYDSrgb-211" value="- NestingParameters: NestingParameters" style="text;strokeColor=none;fillColor=none;align=left;verticalAlign=top;spacingLeft=4;spacingRight=4;overflow=hidden;rotatable=0;points=[[0,0.5],[1,0.5]];portConstraint=eastwest;labelBackgroundColor=none;fontSize=12;" parent="TTTDpmGdwki_0RYDSrgb-178" vertex="1"><mxGeometry y="78" width="380" height="26" as="geometry"/></mxCell><mxCell id="TTTDpmGdwki_0RYDSrgb-192" value="- notes: String" style="text;strokeColor=none;fillColor=none;align=left;verticalAlign=top;spacingLeft=4;spacingRight=4;overflow=hidden;rotatable=0;points=[[0,0.5],[1,0.5]];portConstraint=eastwest;labelBackgroundColor=none;fontSize=12;" parent="TTTDpmGdwki_0RYDSrgb-178" vertex="1"><mxGeometry y="104" width="380" height="26" as="geometry"/></mxCell><mxCell id="TTTDpmGdwki_0RYDSrgb-196" value="- observer: String" style="text;strokeColor=none;fillColor=none;align=left;verticalAlign=top;spacingLeft=4;spacingRight=4;overflow=hidden;rotatable=0;points=[[0,0.5],[1,0.5]];portConstraint=eastwest;labelBackgroundColor=none;fontSize=12;" parent="TTTDpmGdwki_0RYDSrgb-178" vertex="1"><mxGeometry y="130" width="380" height="26" as="geometry"/></mxCell><mxCell id="TTTDpmGdwki_0RYDSrgb-180" value="" style="line;strokeWidth=1;fillColor=none;align=left;verticalAlign=middle;spacingTop=-1;spacingLeft=3;spacingRight=3;rotatable=0;labelPosition=right;points=[];portConstraint=eastwest;labelBackgroundColor=none;fontSize=12;" parent="TTTDpmGdwki_0RYDSrgb-178" vertex="1"><mxGeometry y="156" width="380" height="8" as="geometry"/></mxCell><mxCell id="TTTDpmGdwki_0RYDSrgb-181" value="+ Nesting()" style="text;strokeColor=none;fillColor=none;align=left;verticalAlign=top;spacingLeft=4;spacingRight=4;overflow=hidden;rotatable=0;points=[[0,0.5],[1,0.5]];portConstraint=eastwest;labelBackgroundColor=none;fontSize=12;" parent="TTTDpmGdwki_0RYDSrgb-178" vertex="1"><mxGeometry y="164" width="380" height="26" as="geometry"/></mxCell><mxCell id="TTTDpmGdwki_0RYDSrgb-197" value="+ Nesting(String, LocalDate, NestingParameters, String, String)" style="text;strokeColor=none;fillColor=none;align=left;verticalAlign=top;spacingLeft=4;spacingRight=4;overflow=hidden;rotatable=0;points=[[0,0.5],[1,0.5]];portConstraint=eastwest;labelBackgroundColor=none;fontSize=12;" parent="TTTDpmGdwki_0RYDSrgb-178" vertex="1"><mxGeometry y="190" width="380" height="26" as="geometry"/></mxCell><mxCell id="TTTDpmGdwki_0RYDSrgb-198" value="NestingParameters" style="swimlane;fontStyle=1;align=center;verticalAlign=top;childLayout=stackLayout;horizontal=1;startSize=26;horizontalStack=0;resizeParent=1;resizeParentMax=0;resizeLast=0;collapsible=1;marginBottom=0;labelBackgroundColor=none;fontSize=12;fillColor=none;" parent="1" vertex="1"><mxGeometry x="1795" y="115" width="310" height="268" as="geometry"/></mxCell><mxCell id="TTTDpmGdwki_0RYDSrgb-187" value="- dateOfSurvey: LocalDate" style="text;strokeColor=none;fillColor=none;align=left;verticalAlign=top;spacingLeft=4;spacingRight=4;overflow=hidden;rotatable=0;points=[[0,0.5],[1,0.5]];portConstraint=eastwest;labelBackgroundColor=none;fontSize=12;" parent="TTTDpmGdwki_0RYDSrgb-198" vertex="1"><mxGeometry y="26" width="310" height="26" as="geometry"/></mxCell><mxCell id="TTTDpmGdwki_0RYDSrgb-189" value="- nestingSpecies: String" style="text;strokeColor=none;fillColor=none;align=left;verticalAlign=top;spacingLeft=4;spacingRight=4;overflow=hidden;rotatable=0;points=[[0,0.5],[1,0.5]];portConstraint=eastwest;labelBackgroundColor=none;fontSize=12;" parent="TTTDpmGdwki_0RYDSrgb-198" vertex="1"><mxGeometry y="52" width="310" height="26" as="geometry"/></mxCell><mxCell id="TTTDpmGdwki_0RYDSrgb-186" value="- numberOfEggs: int" style="text;strokeColor=none;fillColor=none;align=left;verticalAlign=top;spacingLeft=4;spacingRight=4;overflow=hidden;rotatable=0;points=[[0,0.5],[1,0.5]];portConstraint=eastwest;labelBackgroundColor=none;fontSize=12;" parent="TTTDpmGdwki_0RYDSrgb-198" vertex="1"><mxGeometry y="78" width="310" height="26" as="geometry"/></mxCell><mxCell id="TTTDpmGdwki_0RYDSrgb-193" value="- numberOfNestlings: int" style="text;strokeColor=none;fillColor=none;align=left;verticalAlign=top;spacingLeft=4;spacingRight=4;overflow=hidden;rotatable=0;points=[[0,0.5],[1,0.5]];portConstraint=eastwest;labelBackgroundColor=none;fontSize=12;" parent="TTTDpmGdwki_0RYDSrgb-198" vertex="1"><mxGeometry y="104" width="310" height="26" as="geometry"/></mxCell><mxCell id="TTTDpmGdwki_0RYDSrgb-190" value="- ageOfNestlings: String&#10;" style="text;strokeColor=none;fillColor=none;align=left;verticalAlign=top;spacingLeft=4;spacingRight=4;overflow=hidden;rotatable=0;points=[[0,0.5],[1,0.5]];portConstraint=eastwest;labelBackgroundColor=none;fontSize=12;" parent="TTTDpmGdwki_0RYDSrgb-198" vertex="1"><mxGeometry y="130" width="310" height="26" as="geometry"/></mxCell><mxCell id="TTTDpmGdwki_0RYDSrgb-204" value="- mortality: Mortality" style="text;strokeColor=none;fillColor=none;align=left;verticalAlign=top;spacingLeft=4;spacingRight=4;overflow=hidden;rotatable=0;points=[[0,0.5],[1,0.5]];portConstraint=eastwest;labelBackgroundColor=none;fontSize=12;" parent="TTTDpmGdwki_0RYDSrgb-198" vertex="1"><mxGeometry y="156" width="310" height="26" as="geometry"/></mxCell><mxCell id="TTTDpmGdwki_0RYDSrgb-200" value="" style="line;strokeWidth=1;fillColor=none;align=left;verticalAlign=middle;spacingTop=-1;spacingLeft=3;spacingRight=3;rotatable=0;labelPosition=right;points=[];portConstraint=eastwest;labelBackgroundColor=none;fontSize=12;" parent="TTTDpmGdwki_0RYDSrgb-198" vertex="1"><mxGeometry y="182" width="310" height="8" as="geometry"/></mxCell><mxCell id="TTTDpmGdwki_0RYDSrgb-202" value="+ NestingParameters()" style="text;strokeColor=none;fillColor=none;align=left;verticalAlign=top;spacingLeft=4;spacingRight=4;overflow=hidden;rotatable=0;points=[[0,0.5],[1,0.5]];portConstraint=eastwest;labelBackgroundColor=none;fontSize=12;" parent="TTTDpmGdwki_0RYDSrgb-198" vertex="1"><mxGeometry y="190" width="310" height="26" as="geometry"/></mxCell><mxCell id="TTTDpmGdwki_0RYDSrgb-203" value="+ NestingParameters(String, int, int String)" style="text;strokeColor=none;fillColor=none;align=left;verticalAlign=top;spacingLeft=4;spacingRight=4;overflow=hidden;rotatable=0;points=[[0,0.5],[1,0.5]];portConstraint=eastwest;labelBackgroundColor=none;fontSize=12;" parent="TTTDpmGdwki_0RYDSrgb-198" vertex="1"><mxGeometry y="216" width="310" height="26" as="geometry"/></mxCell><mxCell id="TTTDpmGdwki_0RYDSrgb-205" value="+ NestingParameters(String, int, int String, Mortality)" style="text;strokeColor=none;fillColor=none;align=left;verticalAlign=top;spacingLeft=4;spacingRight=4;overflow=hidden;rotatable=0;points=[[0,0.5],[1,0.5]];portConstraint=eastwest;labelBackgroundColor=none;fontSize=12;" parent="TTTDpmGdwki_0RYDSrgb-198" vertex="1"><mxGeometry y="242" width="310" height="26" as="geometry"/></mxCell><mxCell id="TTTDpmGdwki_0RYDSrgb-206" value="Mortality" style="swimlane;fontStyle=1;align=center;verticalAlign=top;childLayout=stackLayout;horizontal=1;startSize=26;horizontalStack=0;resizeParent=1;resizeParentMax=0;resizeLast=0;collapsible=1;marginBottom=0;labelBackgroundColor=none;fontSize=12;fillColor=none;" parent="1" vertex="1"><mxGeometry x="2176" y="115" width="220" height="164" as="geometry"/></mxCell><mxCell id="TTTDpmGdwki_0RYDSrgb-191" value="- numberOfScrambledEggs: int&#10;" style="text;strokeColor=none;fillColor=none;align=left;verticalAlign=top;spacingLeft=4;spacingRight=4;overflow=hidden;rotatable=0;points=[[0,0.5],[1,0.5]];portConstraint=eastwest;labelBackgroundColor=none;fontSize=12;" parent="TTTDpmGdwki_0RYDSrgb-206" vertex="1"><mxGeometry y="26" width="220" height="26" as="geometry"/></mxCell><mxCell id="TTTDpmGdwki_0RYDSrgb-194" value="- numberOfDeadChick: int&#10;" style="text;strokeColor=none;fillColor=none;align=left;verticalAlign=top;spacingLeft=4;spacingRight=4;overflow=hidden;rotatable=0;points=[[0,0.5],[1,0.5]];portConstraint=eastwest;labelBackgroundColor=none;fontSize=12;" parent="TTTDpmGdwki_0RYDSrgb-206" vertex="1"><mxGeometry y="52" width="220" height="26" as="geometry"/></mxCell><mxCell id="TTTDpmGdwki_0RYDSrgb-195" value="- descriptionOfMortality: String" style="text;strokeColor=none;fillColor=none;align=left;verticalAlign=top;spacingLeft=4;spacingRight=4;overflow=hidden;rotatable=0;points=[[0,0.5],[1,0.5]];portConstraint=eastwest;labelBackgroundColor=none;fontSize=12;" parent="TTTDpmGdwki_0RYDSrgb-206" vertex="1"><mxGeometry y="78" width="220" height="26" as="geometry"/></mxCell><mxCell id="TTTDpmGdwki_0RYDSrgb-208" value="" style="line;strokeWidth=1;fillColor=none;align=left;verticalAlign=middle;spacingTop=-1;spacingLeft=3;spacingRight=3;rotatable=0;labelPosition=right;points=[];portConstraint=eastwest;labelBackgroundColor=none;fontSize=12;" parent="TTTDpmGdwki_0RYDSrgb-206" vertex="1"><mxGeometry y="104" width="220" height="8" as="geometry"/></mxCell><mxCell id="TTTDpmGdwki_0RYDSrgb-209" value="+ Mortality()" style="text;strokeColor=none;fillColor=none;align=left;verticalAlign=top;spacingLeft=4;spacingRight=4;overflow=hidden;rotatable=0;points=[[0,0.5],[1,0.5]];portConstraint=eastwest;labelBackgroundColor=none;fontSize=12;" parent="TTTDpmGdwki_0RYDSrgb-206" vertex="1"><mxGeometry y="112" width="220" height="26" as="geometry"/></mxCell><mxCell id="TTTDpmGdwki_0RYDSrgb-210" value="+ Mortality(int, int, String)" style="text;strokeColor=none;fillColor=none;align=left;verticalAlign=top;spacingLeft=4;spacingRight=4;overflow=hidden;rotatable=0;points=[[0,0.5],[1,0.5]];portConstraint=eastwest;labelBackgroundColor=none;fontSize=12;" parent="TTTDpmGdwki_0RYDSrgb-206" vertex="1"><mxGeometry y="138" width="220" height="26" as="geometry"/></mxCell><mxCell id="TTTDpmGdwki_0RYDSrgb-223" value="&lt;font style=&quot;font-size: 8px;&quot;&gt;0..1&lt;/font&gt;" style="text;html=1;strokeColor=none;fillColor=none;align=center;verticalAlign=middle;whiteSpace=wrap;rounded=0;labelBackgroundColor=none;fontSize=12;" parent="1" vertex="1"><mxGeometry x="1752" y="112" width="60" height="30" as="geometry"/></mxCell><mxCell id="TTTDpmGdwki_0RYDSrgb-224" value="&lt;font style=&quot;font-size: 8px;&quot;&gt;0..1&lt;/font&gt;" style="text;html=1;strokeColor=none;fillColor=none;align=center;verticalAlign=middle;whiteSpace=wrap;rounded=0;labelBackgroundColor=none;fontSize=12;" parent="1" vertex="1"><mxGeometry x="2132" y="107" width="60" height="30" as="geometry"/></mxCell><mxCell id="0lpxt2IIvBe8jApbLc8z-1" value="NestBox" style="swimlane;fontStyle=1;align=center;verticalAlign=top;childLayout=stackLayout;horizontal=1;startSize=26;horizontalStack=0;resizeParent=1;resizeParentMax=0;resizeLast=0;collapsible=1;marginBottom=0;fillColor=none;" parent="1" vertex="1"><mxGeometry x="913.5" y="115" width="236.5" height="242" as="geometry"/></mxCell><mxCell id="0lpxt2IIvBe8jApbLc8z-2" value="- id: Long" style="text;strokeColor=none;fillColor=none;align=left;verticalAlign=top;spacingLeft=4;spacingRight=4;overflow=hidden;rotatable=0;points=[[0,0.5],[1,0.5]];portConstraint=eastwest;" parent="0lpxt2IIvBe8jApbLc8z-1" vertex="1"><mxGeometry y="26" width="236.5" height="26" as="geometry"/></mxCell><mxCell id="0lpxt2IIvBe8jApbLc8z-6" value="- nestBoxId: String&#10;" style="text;strokeColor=none;fillColor=none;align=left;verticalAlign=top;spacingLeft=4;spacingRight=4;overflow=hidden;rotatable=0;points=[[0,0.5],[1,0.5]];portConstraint=eastwest;" parent="0lpxt2IIvBe8jApbLc8z-1" vertex="1"><mxGeometry y="52" width="236.5" height="26" as="geometry"/></mxCell><mxCell id="0lpxt2IIvBe8jApbLc8z-42" value="- nestBoxPlacement: NestBoxPlacement" style="text;strokeColor=none;fillColor=none;align=left;verticalAlign=top;spacingLeft=4;spacingRight=4;overflow=hidden;rotatable=0;points=[[0,0.5],[1,0.5]];portConstraint=eastwest;" parent="0lpxt2IIvBe8jApbLc8z-1" vertex="1"><mxGeometry y="78" width="236.5" height="26" as="geometry"/></mxCell><mxCell id="0lpxt2IIvBe8jApbLc8z-15" value="- nestBoxExpiration: NestBoxExpiration" style="text;strokeColor=none;fillColor=none;align=left;verticalAlign=top;spacingLeft=4;spacingRight=4;overflow=hidden;rotatable=0;points=[[0,0.5],[1,0.5]];portConstraint=eastwest;" parent="0lpxt2IIvBe8jApbLc8z-1" vertex="1"><mxGeometry y="104" width="236.5" height="26" as="geometry"/></mxCell><mxCell id="0lpxt2IIvBe8jApbLc8z-43" value="- condition: Condition" style="text;strokeColor=none;fillColor=none;align=left;verticalAlign=top;spacingLeft=4;spacingRight=4;overflow=hidden;rotatable=0;points=[[0,0.5],[1,0.5]];portConstraint=eastwest;" parent="0lpxt2IIvBe8jApbLc8z-1" vertex="1"><mxGeometry y="130" width="236.5" height="26" as="geometry"/></mxCell><mxCell id="0lpxt2IIvBe8jApbLc8z-5" value="- isLiving: boolean" style="text;strokeColor=none;fillColor=none;align=left;verticalAlign=top;spacingLeft=4;spacingRight=4;overflow=hidden;rotatable=0;points=[[0,0.5],[1,0.5]];portConstraint=eastwest;" parent="0lpxt2IIvBe8jApbLc8z-1" vertex="1"><mxGeometry y="156" width="236.5" height="26" as="geometry"/></mxCell><mxCell id="0lpxt2IIvBe8jApbLc8z-21" value="- nestings: List&lt;Nesting&gt;" style="text;strokeColor=none;fillColor=none;align=left;verticalAlign=top;spacingLeft=4;spacingRight=4;overflow=hidden;rotatable=0;points=[[0,0.5],[1,0.5]];portConstraint=eastwest;" parent="0lpxt2IIvBe8jApbLc8z-1" vertex="1"><mxGeometry y="182" width="236.5" height="26" as="geometry"/></mxCell><mxCell id="0lpxt2IIvBe8jApbLc8z-3" value="" style="line;strokeWidth=1;fillColor=none;align=left;verticalAlign=middle;spacingTop=-1;spacingLeft=3;spacingRight=3;rotatable=0;labelPosition=right;points=[];portConstraint=eastwest;" parent="0lpxt2IIvBe8jApbLc8z-1" vertex="1"><mxGeometry y="208" width="236.5" height="8" as="geometry"/></mxCell><mxCell id="0lpxt2IIvBe8jApbLc8z-4" value="+ method(type): type" style="text;strokeColor=none;fillColor=none;align=left;verticalAlign=top;spacingLeft=4;spacingRight=4;overflow=hidden;rotatable=0;points=[[0,0.5],[1,0.5]];portConstraint=eastwest;" parent="0lpxt2IIvBe8jApbLc8z-1" vertex="1"><mxGeometry y="216" width="236.5" height="26" as="geometry"/></mxCell><mxCell id="0lpxt2IIvBe8jApbLc8z-19" value="" style="endArrow=diamondThin;endFill=1;endSize=24;html=1;rounded=0;entryX=1;entryY=0.231;entryDx=0;entryDy=0;entryPerimeter=0;exitX=0;exitY=0.084;exitDx=0;exitDy=0;exitPerimeter=0;" parent="1" source="TTTDpmGdwki_0RYDSrgb-198" target="TTTDpmGdwki_0RYDSrgb-211" edge="1"><mxGeometry width="160" relative="1" as="geometry"><mxPoint x="1782" y="570" as="sourcePoint"/><mxPoint x="1702" y="290" as="targetPoint"/><Array as="points"><mxPoint x="1742" y="138"/><mxPoint x="1742" y="199"/></Array></mxGeometry></mxCell><mxCell id="0lpxt2IIvBe8jApbLc8z-20" value="" style="endArrow=diamondThin;endFill=1;endSize=24;html=1;rounded=0;exitX=-0.002;exitY=0.079;exitDx=0;exitDy=0;exitPerimeter=0;entryX=0.997;entryY=0.611;entryDx=0;entryDy=0;entryPerimeter=0;" parent="1" source="TTTDpmGdwki_0RYDSrgb-206" target="TTTDpmGdwki_0RYDSrgb-204" edge="1"><mxGeometry width="160" relative="1" as="geometry"><mxPoint x="1862" y="560" as="sourcePoint"/><mxPoint x="2102" y="290" as="targetPoint"/><Array as="points"><mxPoint x="2152" y="128"/><mxPoint x="2152" y="287"/></Array></mxGeometry></mxCell><mxCell id="0lpxt2IIvBe8jApbLc8z-25" value="" style="endArrow=diamondThin;endFill=1;endSize=24;html=1;rounded=0;entryX=1;entryY=0.5;entryDx=0;entryDy=0;exitX=0;exitY=0.427;exitDx=0;exitDy=0;exitPerimeter=0;" parent="1" source="TTTDpmGdwki_0RYDSrgb-188" target="0lpxt2IIvBe8jApbLc8z-21" edge="1"><mxGeometry width="160" relative="1" as="geometry"><mxPoint x="1282" y="180" as="sourcePoint"/><mxPoint x="1392" y="740" as="targetPoint"/><Array as="points"><mxPoint x="1230" y="178"/><mxPoint x="1230" y="310"/></Array></mxGeometry></mxCell><mxCell id="0lpxt2IIvBe8jApbLc8z-26" value="&lt;font style=&quot;font-size: 10px;&quot;&gt;0..n&lt;/font&gt;" style="text;html=1;strokeColor=none;fillColor=none;align=center;verticalAlign=middle;whiteSpace=wrap;rounded=0;labelBackgroundColor=none;fontSize=12;" parent="1" vertex="1"><mxGeometry x="1260.5" y="150" width="60" height="30" as="geometry"/></mxCell><mxCell id="0lpxt2IIvBe8jApbLc8z-29" value="NestboxParameters" style="swimlane;fontStyle=1;align=center;verticalAlign=top;childLayout=stackLayout;horizontal=1;startSize=26;horizontalStack=0;resizeParent=1;resizeParentMax=0;resizeLast=0;collapsible=1;marginBottom=0;fillColor=none;" parent="1" vertex="1"><mxGeometry x="291" y="74" width="186" height="216" as="geometry"/></mxCell><mxCell id="0lpxt2IIvBe8jApbLc8z-11" value="- coordinate: Coordinates" style="text;strokeColor=none;fillColor=none;align=left;verticalAlign=top;spacingLeft=4;spacingRight=4;overflow=hidden;rotatable=0;points=[[0,0.5],[1,0.5]];portConstraint=eastwest;" parent="0lpxt2IIvBe8jApbLc8z-29" vertex="1"><mxGeometry y="26" width="186" height="26" as="geometry"/></mxCell><mxCell id="0lpxt2IIvBe8jApbLc8z-12" value="- holder: String" style="text;strokeColor=none;fillColor=none;align=left;verticalAlign=top;spacingLeft=4;spacingRight=4;overflow=hidden;rotatable=0;points=[[0,0.5],[1,0.5]];portConstraint=eastwest;" parent="0lpxt2IIvBe8jApbLc8z-29" vertex="1"><mxGeometry y="52" width="186" height="26" as="geometry"/></mxCell><mxCell id="0lpxt2IIvBe8jApbLc8z-7" value="- height: double" style="text;strokeColor=none;fillColor=none;align=left;verticalAlign=top;spacingLeft=4;spacingRight=4;overflow=hidden;rotatable=0;points=[[0,0.5],[1,0.5]];portConstraint=eastwest;" parent="0lpxt2IIvBe8jApbLc8z-29" vertex="1"><mxGeometry y="78" width="186" height="26" as="geometry"/></mxCell><mxCell id="0lpxt2IIvBe8jApbLc8z-17" value="- orientation: Quarter" style="text;strokeColor=none;fillColor=none;align=left;verticalAlign=top;spacingLeft=4;spacingRight=4;overflow=hidden;rotatable=0;points=[[0,0.5],[1,0.5]];portConstraint=eastwest;" parent="0lpxt2IIvBe8jApbLc8z-29" vertex="1"><mxGeometry y="104" width="186" height="26" as="geometry"/></mxCell><mxCell id="0lpxt2IIvBe8jApbLc8z-14" value="- nestBoxType: NestBoxType" style="text;strokeColor=none;fillColor=none;align=left;verticalAlign=top;spacingLeft=4;spacingRight=4;overflow=hidden;rotatable=0;points=[[0,0.5],[1,0.5]];portConstraint=eastwest;" parent="0lpxt2IIvBe8jApbLc8z-29" vertex="1"><mxGeometry y="130" width="186" height="26" as="geometry"/></mxCell><mxCell id="0lpxt2IIvBe8jApbLc8z-33" value="- notes: String" style="text;strokeColor=none;fillColor=none;align=left;verticalAlign=top;spacingLeft=4;spacingRight=4;overflow=hidden;rotatable=0;points=[[0,0.5],[1,0.5]];portConstraint=eastwest;" parent="0lpxt2IIvBe8jApbLc8z-29" vertex="1"><mxGeometry y="156" width="186" height="26" as="geometry"/></mxCell><mxCell id="0lpxt2IIvBe8jApbLc8z-31" value="" style="line;strokeWidth=1;fillColor=none;align=left;verticalAlign=middle;spacingTop=-1;spacingLeft=3;spacingRight=3;rotatable=0;labelPosition=right;points=[];portConstraint=eastwest;" parent="0lpxt2IIvBe8jApbLc8z-29" vertex="1"><mxGeometry y="182" width="186" height="8" as="geometry"/></mxCell><mxCell id="0lpxt2IIvBe8jApbLc8z-32" value="+ method(type): type" style="text;strokeColor=none;fillColor=none;align=left;verticalAlign=top;spacingLeft=4;spacingRight=4;overflow=hidden;rotatable=0;points=[[0,0.5],[1,0.5]];portConstraint=eastwest;" parent="0lpxt2IIvBe8jApbLc8z-29" vertex="1"><mxGeometry y="190" width="186" height="26" as="geometry"/></mxCell><mxCell id="0lpxt2IIvBe8jApbLc8z-34" value="NestBoxExpiration" style="swimlane;fontStyle=1;align=center;verticalAlign=top;childLayout=stackLayout;horizontal=1;startSize=26;horizontalStack=0;resizeParent=1;resizeParentMax=0;resizeLast=0;collapsible=1;marginBottom=0;fillColor=none;" parent="1" vertex="1"><mxGeometry x="606.5" y="240" width="190" height="164" as="geometry"/></mxCell><mxCell id="0lpxt2IIvBe8jApbLc8z-35" value="+ field: type" style="text;strokeColor=none;fillColor=none;align=left;verticalAlign=top;spacingLeft=4;spacingRight=4;overflow=hidden;rotatable=0;points=[[0,0.5],[1,0.5]];portConstraint=eastwest;" parent="0lpxt2IIvBe8jApbLc8z-34" vertex="1"><mxGeometry y="26" width="190" height="26" as="geometry"/></mxCell><mxCell id="0lpxt2IIvBe8jApbLc8z-10" value="- dateOfExpiry: LocalDate" style="text;strokeColor=none;fillColor=none;align=left;verticalAlign=top;spacingLeft=4;spacingRight=4;overflow=hidden;rotatable=0;points=[[0,0.5],[1,0.5]];portConstraint=eastwest;" parent="0lpxt2IIvBe8jApbLc8z-34" vertex="1"><mxGeometry y="52" width="190" height="26" as="geometry"/></mxCell><mxCell id="0lpxt2IIvBe8jApbLc8z-13" value="- descriptionOfExpiration: String" style="text;strokeColor=none;fillColor=none;align=left;verticalAlign=top;spacingLeft=4;spacingRight=4;overflow=hidden;rotatable=0;points=[[0,0.5],[1,0.5]];portConstraint=eastwest;" parent="0lpxt2IIvBe8jApbLc8z-34" vertex="1"><mxGeometry y="78" width="190" height="26" as="geometry"/></mxCell><mxCell id="0lpxt2IIvBe8jApbLc8z-8" value="- reporterOfExpiration: String" style="text;strokeColor=none;fillColor=none;align=left;verticalAlign=top;spacingLeft=4;spacingRight=4;overflow=hidden;rotatable=0;points=[[0,0.5],[1,0.5]];portConstraint=eastwest;" parent="0lpxt2IIvBe8jApbLc8z-34" vertex="1"><mxGeometry y="104" width="190" height="26" as="geometry"/></mxCell><mxCell id="0lpxt2IIvBe8jApbLc8z-36" value="" style="line;strokeWidth=1;fillColor=none;align=left;verticalAlign=middle;spacingTop=-1;spacingLeft=3;spacingRight=3;rotatable=0;labelPosition=right;points=[];portConstraint=eastwest;" parent="0lpxt2IIvBe8jApbLc8z-34" vertex="1"><mxGeometry y="130" width="190" height="8" as="geometry"/></mxCell><mxCell id="0lpxt2IIvBe8jApbLc8z-37" value="+ method(type): type" style="text;strokeColor=none;fillColor=none;align=left;verticalAlign=top;spacingLeft=4;spacingRight=4;overflow=hidden;rotatable=0;points=[[0,0.5],[1,0.5]];portConstraint=eastwest;" parent="0lpxt2IIvBe8jApbLc8z-34" vertex="1"><mxGeometry y="138" width="190" height="26" as="geometry"/></mxCell><mxCell id="0lpxt2IIvBe8jApbLc8z-38" value="NestBoxPlacement" style="swimlane;fontStyle=1;align=center;verticalAlign=top;childLayout=stackLayout;horizontal=1;startSize=26;horizontalStack=0;resizeParent=1;resizeParentMax=0;resizeLast=0;collapsible=1;marginBottom=0;fillColor=none;" parent="1" vertex="1"><mxGeometry x="576" y="70" width="251" height="138" as="geometry"/></mxCell><mxCell id="0lpxt2IIvBe8jApbLc8z-9" value="- dateOfPlacement: LocalDate" style="text;strokeColor=none;fillColor=none;align=left;verticalAlign=top;spacingLeft=4;spacingRight=4;overflow=hidden;rotatable=0;points=[[0,0.5],[1,0.5]];portConstraint=eastwest;" parent="0lpxt2IIvBe8jApbLc8z-38" vertex="1"><mxGeometry y="26" width="251" height="26" as="geometry"/></mxCell><mxCell id="0lpxt2IIvBe8jApbLc8z-39" value="+ nestBoxParameters: NestBoxParameters&#10;" style="text;strokeColor=none;fillColor=none;align=left;verticalAlign=top;spacingLeft=4;spacingRight=4;overflow=hidden;rotatable=0;points=[[0,0.5],[1,0.5]];portConstraint=eastwest;" parent="0lpxt2IIvBe8jApbLc8z-38" vertex="1"><mxGeometry y="52" width="251" height="26" as="geometry"/></mxCell><mxCell id="0lpxt2IIvBe8jApbLc8z-18" value="- reporterOfPlacement: String" style="text;strokeColor=none;fillColor=none;align=left;verticalAlign=top;spacingLeft=4;spacingRight=4;overflow=hidden;rotatable=0;points=[[0,0.5],[1,0.5]];portConstraint=eastwest;" parent="0lpxt2IIvBe8jApbLc8z-38" vertex="1"><mxGeometry y="78" width="251" height="26" as="geometry"/></mxCell><mxCell id="0lpxt2IIvBe8jApbLc8z-40" value="" style="line;strokeWidth=1;fillColor=none;align=left;verticalAlign=middle;spacingTop=-1;spacingLeft=3;spacingRight=3;rotatable=0;labelPosition=right;points=[];portConstraint=eastwest;" parent="0lpxt2IIvBe8jApbLc8z-38" vertex="1"><mxGeometry y="104" width="251" height="8" as="geometry"/></mxCell><mxCell id="0lpxt2IIvBe8jApbLc8z-41" value="+ method(type): type" style="text;strokeColor=none;fillColor=none;align=left;verticalAlign=top;spacingLeft=4;spacingRight=4;overflow=hidden;rotatable=0;points=[[0,0.5],[1,0.5]];portConstraint=eastwest;" parent="0lpxt2IIvBe8jApbLc8z-38" vertex="1"><mxGeometry y="112" width="251" height="26" as="geometry"/></mxCell><mxCell id="pwKjhXbv3Zli7kEAeJ75-7" value="NestBoxPlacementCommand" style="swimlane;fontStyle=1;align=center;verticalAlign=top;childLayout=stackLayout;horizontal=1;startSize=26;horizontalStack=0;resizeParent=1;resizeParentMax=0;resizeLast=0;collapsible=1;marginBottom=0;fillColor=none;" parent="1" vertex="1"><mxGeometry x="24.5" y="814" width="371" height="198" as="geometry"/></mxCell><mxCell id="TTTDpmGdwki_0RYDSrgb-119" value="- nestBoxId (String)" style="text;strokeColor=none;fillColor=none;align=left;verticalAlign=middle;spacingLeft=4;spacingRight=4;overflow=hidden;points=[[0,0.5],[1,0.5]];portConstraint=eastwest;rotatable=0;labelBackgroundColor=none;fontSize=12;" parent="pwKjhXbv3Zli7kEAeJ75-7" vertex="1"><mxGeometry y="26" width="371" height="30" as="geometry"/></mxCell><mxCell id="pwKjhXbv3Zli7kEAeJ75-8" value="- dateOfPlacement: LocalDate" style="text;strokeColor=none;fillColor=none;align=left;verticalAlign=top;spacingLeft=4;spacingRight=4;overflow=hidden;rotatable=0;points=[[0,0.5],[1,0.5]];portConstraint=eastwest;" parent="pwKjhXbv3Zli7kEAeJ75-7" vertex="1"><mxGeometry y="56" width="371" height="26" as="geometry"/></mxCell><mxCell id="TTTDpmGdwki_0RYDSrgb-121" value="- coordinatesCommand (CoordinatesCommand)" style="text;strokeColor=none;fillColor=none;align=left;verticalAlign=middle;spacingLeft=4;spacingRight=4;overflow=hidden;points=[[0,0.5],[1,0.5]];portConstraint=eastwest;rotatable=0;labelBackgroundColor=none;fontSize=12;" parent="pwKjhXbv3Zli7kEAeJ75-7" vertex="1"><mxGeometry y="82" width="371" height="30" as="geometry"/></mxCell><mxCell id="pwKjhXbv3Zli7kEAeJ75-9" value="- nestBoxParametersCommand: NestBoxParametersCommand&#10;" style="text;strokeColor=none;fillColor=none;align=left;verticalAlign=top;spacingLeft=4;spacingRight=4;overflow=hidden;rotatable=0;points=[[0,0.5],[1,0.5]];portConstraint=eastwest;" parent="pwKjhXbv3Zli7kEAeJ75-7" vertex="1"><mxGeometry y="112" width="371" height="26" as="geometry"/></mxCell><mxCell id="pwKjhXbv3Zli7kEAeJ75-10" value="- reporterOfPlacement: String" style="text;strokeColor=none;fillColor=none;align=left;verticalAlign=top;spacingLeft=4;spacingRight=4;overflow=hidden;rotatable=0;points=[[0,0.5],[1,0.5]];portConstraint=eastwest;" parent="pwKjhXbv3Zli7kEAeJ75-7" vertex="1"><mxGeometry y="138" width="371" height="26" as="geometry"/></mxCell><mxCell id="pwKjhXbv3Zli7kEAeJ75-11" value="" style="line;strokeWidth=1;fillColor=none;align=left;verticalAlign=middle;spacingTop=-1;spacingLeft=3;spacingRight=3;rotatable=0;labelPosition=right;points=[];portConstraint=eastwest;" parent="pwKjhXbv3Zli7kEAeJ75-7" vertex="1"><mxGeometry y="164" width="371" height="8" as="geometry"/></mxCell><mxCell id="pwKjhXbv3Zli7kEAeJ75-12" value="+ method(type): type" style="text;strokeColor=none;fillColor=none;align=left;verticalAlign=top;spacingLeft=4;spacingRight=4;overflow=hidden;rotatable=0;points=[[0,0.5],[1,0.5]];portConstraint=eastwest;" parent="pwKjhXbv3Zli7kEAeJ75-7" vertex="1"><mxGeometry y="172" width="371" height="26" as="geometry"/></mxCell><mxCell id="pwKjhXbv3Zli7kEAeJ75-14" value="&lt;br&gt;&lt;b&gt;&lt;font style=&quot;font-size: 20px;&quot;&gt;Commands&lt;/font&gt;&lt;/b&gt;" style="text;html=1;strokeColor=none;fillColor=none;spacing=5;spacingTop=-27;whiteSpace=wrap;overflow=hidden;rounded=0;labelBackgroundColor=none;fontSize=12;align=center;verticalAlign=middle;" parent="1" vertex="1"><mxGeometry x="730.5" y="760" width="190" height="30" as="geometry"/></mxCell><mxCell id="pwKjhXbv3Zli7kEAeJ75-15" value="NestBoxRepairCommand" style="swimlane;fontStyle=1;align=center;verticalAlign=top;childLayout=stackLayout;horizontal=1;startSize=26;horizontalStack=0;resizeParent=1;resizeParentMax=0;resizeLast=0;collapsible=1;marginBottom=0;fillColor=none;" parent="1" vertex="1"><mxGeometry x="640" y="814" width="371" height="232" as="geometry"/></mxCell><mxCell id="pwKjhXbv3Zli7kEAeJ75-16" value="- nestBoxId (String)" style="text;strokeColor=none;fillColor=none;align=left;verticalAlign=middle;spacingLeft=4;spacingRight=4;overflow=hidden;points=[[0,0.5],[1,0.5]];portConstraint=eastwest;rotatable=0;labelBackgroundColor=none;fontSize=12;" parent="pwKjhXbv3Zli7kEAeJ75-15" vertex="1"><mxGeometry y="26" width="371" height="30" as="geometry"/></mxCell><mxCell id="pwKjhXbv3Zli7kEAeJ75-17" value="- dateOfRepair: LocalDate" style="text;strokeColor=none;fillColor=none;align=left;verticalAlign=top;spacingLeft=4;spacingRight=4;overflow=hidden;rotatable=0;points=[[0,0.5],[1,0.5]];portConstraint=eastwest;" parent="pwKjhXbv3Zli7kEAeJ75-15" vertex="1"><mxGeometry y="56" width="371" height="26" as="geometry"/></mxCell><mxCell id="TTTDpmGdwki_0RYDSrgb-123" value="- oldCondition (Condition)" style="text;strokeColor=none;fillColor=none;align=left;verticalAlign=middle;spacingLeft=4;spacingRight=4;overflow=hidden;points=[[0,0.5],[1,0.5]];portConstraint=eastwest;rotatable=0;labelBackgroundColor=none;fontSize=12;" parent="pwKjhXbv3Zli7kEAeJ75-15" vertex="1"><mxGeometry y="82" width="371" height="30" as="geometry"/></mxCell><mxCell id="TTTDpmGdwki_0RYDSrgb-125" value="- newCondition (Condition)" style="text;strokeColor=none;fillColor=none;align=left;verticalAlign=middle;spacingLeft=4;spacingRight=4;overflow=hidden;points=[[0,0.5],[1,0.5]];portConstraint=eastwest;rotatable=0;labelBackgroundColor=none;fontSize=12;" parent="pwKjhXbv3Zli7kEAeJ75-15" vertex="1"><mxGeometry y="112" width="371" height="30" as="geometry"/></mxCell><mxCell id="TTTDpmGdwki_0RYDSrgb-154" value="- description (String)" style="text;strokeColor=none;fillColor=none;align=left;verticalAlign=middle;spacingLeft=4;spacingRight=4;overflow=hidden;points=[[0,0.5],[1,0.5]];portConstraint=eastwest;rotatable=0;labelBackgroundColor=none;fontSize=12;" parent="pwKjhXbv3Zli7kEAeJ75-15" vertex="1"><mxGeometry y="142" width="371" height="30" as="geometry"/></mxCell><mxCell id="pwKjhXbv3Zli7kEAeJ75-20" value="- reporterOfRepair: String" style="text;strokeColor=none;fillColor=none;align=left;verticalAlign=top;spacingLeft=4;spacingRight=4;overflow=hidden;rotatable=0;points=[[0,0.5],[1,0.5]];portConstraint=eastwest;" parent="pwKjhXbv3Zli7kEAeJ75-15" vertex="1"><mxGeometry y="172" width="371" height="26" as="geometry"/></mxCell><mxCell id="pwKjhXbv3Zli7kEAeJ75-21" value="" style="line;strokeWidth=1;fillColor=none;align=left;verticalAlign=middle;spacingTop=-1;spacingLeft=3;spacingRight=3;rotatable=0;labelPosition=right;points=[];portConstraint=eastwest;" parent="pwKjhXbv3Zli7kEAeJ75-15" vertex="1"><mxGeometry y="198" width="371" height="8" as="geometry"/></mxCell><mxCell id="pwKjhXbv3Zli7kEAeJ75-22" value="+ method(type): type" style="text;strokeColor=none;fillColor=none;align=left;verticalAlign=top;spacingLeft=4;spacingRight=4;overflow=hidden;rotatable=0;points=[[0,0.5],[1,0.5]];portConstraint=eastwest;" parent="pwKjhXbv3Zli7kEAeJ75-15" vertex="1"><mxGeometry y="206" width="371" height="26" as="geometry"/></mxCell><mxCell id="pwKjhXbv3Zli7kEAeJ75-23" value="SurveyCommand" style="swimlane;fontStyle=1;align=center;verticalAlign=top;childLayout=stackLayout;horizontal=1;startSize=26;horizontalStack=0;resizeParent=1;resizeParentMax=0;resizeLast=0;collapsible=1;marginBottom=0;fillColor=none;" parent="1" vertex="1"><mxGeometry x="1212" y="814" width="371" height="240" as="geometry"/></mxCell><mxCell id="pwKjhXbv3Zli7kEAeJ75-24" value="- nestBoxId (String)" style="text;strokeColor=none;fillColor=none;align=left;verticalAlign=middle;spacingLeft=4;spacingRight=4;overflow=hidden;points=[[0,0.5],[1,0.5]];portConstraint=eastwest;rotatable=0;labelBackgroundColor=none;fontSize=12;" parent="pwKjhXbv3Zli7kEAeJ75-23" vertex="1"><mxGeometry y="26" width="371" height="30" as="geometry"/></mxCell><mxCell id="TTTDpmGdwki_0RYDSrgb-142" value="- coordinates (CoordinatesCommand)" style="text;strokeColor=none;fillColor=none;align=left;verticalAlign=middle;spacingLeft=4;spacingRight=4;overflow=hidden;points=[[0,0.5],[1,0.5]];portConstraint=eastwest;rotatable=0;labelBackgroundColor=none;fontSize=12;" parent="pwKjhXbv3Zli7kEAeJ75-23" vertex="1"><mxGeometry y="56" width="371" height="30" as="geometry"/></mxCell><mxCell id="0lpxt2IIvBe8jApbLc8z-28" value="- nestingParametersCommand (NestingParametersCommand)" style="text;strokeColor=none;fillColor=none;align=left;verticalAlign=middle;spacingLeft=4;spacingRight=4;overflow=hidden;points=[[0,0.5],[1,0.5]];portConstraint=eastwest;rotatable=0;labelBackgroundColor=none;fontSize=12;" parent="pwKjhXbv3Zli7kEAeJ75-23" vertex="1"><mxGeometry y="86" width="371" height="30" as="geometry"/></mxCell><mxCell id="TTTDpmGdwki_0RYDSrgb-138" value="- condition (Condition)" style="text;strokeColor=none;fillColor=none;align=left;verticalAlign=middle;spacingLeft=4;spacingRight=4;overflow=hidden;points=[[0,0.5],[1,0.5]];portConstraint=eastwest;rotatable=0;labelBackgroundColor=none;fontSize=12;" parent="pwKjhXbv3Zli7kEAeJ75-23" vertex="1"><mxGeometry y="116" width="371" height="30" as="geometry"/></mxCell><mxCell id="TTTDpmGdwki_0RYDSrgb-139" value="- notesOnNestBox (String)" style="text;strokeColor=none;fillColor=none;align=left;verticalAlign=middle;spacingLeft=4;spacingRight=4;overflow=hidden;points=[[0,0.5],[1,0.5]];portConstraint=eastwest;rotatable=0;labelBackgroundColor=none;fontSize=12;" parent="pwKjhXbv3Zli7kEAeJ75-23" vertex="1"><mxGeometry y="146" width="371" height="30" as="geometry"/></mxCell><mxCell id="TTTDpmGdwki_0RYDSrgb-140" value="- observer (String)" style="text;strokeColor=none;fillColor=none;align=left;verticalAlign=middle;spacingLeft=4;spacingRight=4;overflow=hidden;points=[[0,0.5],[1,0.5]];portConstraint=eastwest;rotatable=0;labelBackgroundColor=none;fontSize=12;" parent="pwKjhXbv3Zli7kEAeJ75-23" vertex="1"><mxGeometry y="176" width="371" height="30" as="geometry"/></mxCell><mxCell id="pwKjhXbv3Zli7kEAeJ75-30" value="" style="line;strokeWidth=1;fillColor=none;align=left;verticalAlign=middle;spacingTop=-1;spacingLeft=3;spacingRight=3;rotatable=0;labelPosition=right;points=[];portConstraint=eastwest;" parent="pwKjhXbv3Zli7kEAeJ75-23" vertex="1"><mxGeometry y="206" width="371" height="8" as="geometry"/></mxCell><mxCell id="pwKjhXbv3Zli7kEAeJ75-31" value="+ method(type): type" style="text;strokeColor=none;fillColor=none;align=left;verticalAlign=top;spacingLeft=4;spacingRight=4;overflow=hidden;rotatable=0;points=[[0,0.5],[1,0.5]];portConstraint=eastwest;" parent="pwKjhXbv3Zli7kEAeJ75-23" vertex="1"><mxGeometry y="214" width="371" height="26" as="geometry"/></mxCell><mxCell id="pwKjhXbv3Zli7kEAeJ75-32" value="&lt;br&gt;&lt;b&gt;&lt;font style=&quot;font-size: 20px;&quot;&gt;Dtos&lt;/font&gt;&lt;/b&gt;" style="text;html=1;strokeColor=none;fillColor=none;spacing=5;spacingTop=-27;whiteSpace=wrap;overflow=hidden;rounded=0;labelBackgroundColor=none;fontSize=12;align=center;verticalAlign=middle;" parent="1" vertex="1"><mxGeometry x="730.5" y="1090" width="190" height="30" as="geometry"/></mxCell><mxCell id="pwKjhXbv3Zli7kEAeJ75-33" value="Entity Object" style="ellipse;shape=umlEntity;whiteSpace=wrap;html=1;fillColor=none;" parent="1" vertex="1"><mxGeometry x="992" y="32" width="80" height="80" as="geometry"/></mxCell><mxCell id="pwKjhXbv3Zli7kEAeJ75-36" value="Entity Object" style="ellipse;shape=umlEntity;whiteSpace=wrap;html=1;fillColor=none;" parent="1" vertex="1"><mxGeometry x="1462" y="32" width="80" height="80" as="geometry"/></mxCell><mxCell id="pwKjhXbv3Zli7kEAeJ75-37" value="NestBoxDto" style="swimlane;fontStyle=1;align=center;verticalAlign=top;childLayout=stackLayout;horizontal=1;startSize=26;horizontalStack=0;resizeParent=1;resizeParentMax=0;resizeLast=0;collapsible=1;marginBottom=0;fillColor=none;" parent="1" vertex="1"><mxGeometry x="80" y="1130" width="330" height="216" as="geometry"/></mxCell><mxCell id="pwKjhXbv3Zli7kEAeJ75-38" value="- id: Long" style="text;strokeColor=none;fillColor=none;align=left;verticalAlign=top;spacingLeft=4;spacingRight=4;overflow=hidden;rotatable=0;points=[[0,0.5],[1,0.5]];portConstraint=eastwest;" parent="pwKjhXbv3Zli7kEAeJ75-37" vertex="1"><mxGeometry y="26" width="330" height="26" as="geometry"/></mxCell><mxCell id="pwKjhXbv3Zli7kEAeJ75-39" value="- nestBoxId: String&#10;" style="text;strokeColor=none;fillColor=none;align=left;verticalAlign=top;spacingLeft=4;spacingRight=4;overflow=hidden;rotatable=0;points=[[0,0.5],[1,0.5]];portConstraint=eastwest;" parent="pwKjhXbv3Zli7kEAeJ75-37" vertex="1"><mxGeometry y="52" width="330" height="26" as="geometry"/></mxCell><mxCell id="pwKjhXbv3Zli7kEAeJ75-40" value="- nestBoxPlacementDto: NestBoxPlacementDto" style="text;strokeColor=none;fillColor=none;align=left;verticalAlign=top;spacingLeft=4;spacingRight=4;overflow=hidden;rotatable=0;points=[[0,0.5],[1,0.5]];portConstraint=eastwest;" parent="pwKjhXbv3Zli7kEAeJ75-37" vertex="1"><mxGeometry y="78" width="330" height="26" as="geometry"/></mxCell><mxCell id="pwKjhXbv3Zli7kEAeJ75-41" value="- nestBoxExpirationDto: NestBoxExpirationDto" style="text;strokeColor=none;fillColor=none;align=left;verticalAlign=top;spacingLeft=4;spacingRight=4;overflow=hidden;rotatable=0;points=[[0,0.5],[1,0.5]];portConstraint=eastwest;" parent="pwKjhXbv3Zli7kEAeJ75-37" vertex="1"><mxGeometry y="104" width="330" height="26" as="geometry"/></mxCell><mxCell id="pwKjhXbv3Zli7kEAeJ75-42" value="- condition: Condition" style="text;strokeColor=none;fillColor=none;align=left;verticalAlign=top;spacingLeft=4;spacingRight=4;overflow=hidden;rotatable=0;points=[[0,0.5],[1,0.5]];portConstraint=eastwest;" parent="pwKjhXbv3Zli7kEAeJ75-37" vertex="1"><mxGeometry y="130" width="330" height="26" as="geometry"/></mxCell><mxCell id="pwKjhXbv3Zli7kEAeJ75-43" value="- isLiving: boolean" style="text;strokeColor=none;fillColor=none;align=left;verticalAlign=top;spacingLeft=4;spacingRight=4;overflow=hidden;rotatable=0;points=[[0,0.5],[1,0.5]];portConstraint=eastwest;" parent="pwKjhXbv3Zli7kEAeJ75-37" vertex="1"><mxGeometry y="156" width="330" height="26" as="geometry"/></mxCell><mxCell id="pwKjhXbv3Zli7kEAeJ75-45" value="" style="line;strokeWidth=1;fillColor=none;align=left;verticalAlign=middle;spacingTop=-1;spacingLeft=3;spacingRight=3;rotatable=0;labelPosition=right;points=[];portConstraint=eastwest;" parent="pwKjhXbv3Zli7kEAeJ75-37" vertex="1"><mxGeometry y="182" width="330" height="8" as="geometry"/></mxCell><mxCell id="pwKjhXbv3Zli7kEAeJ75-46" value="+ method(type): type" style="text;strokeColor=none;fillColor=none;align=left;verticalAlign=top;spacingLeft=4;spacingRight=4;overflow=hidden;rotatable=0;points=[[0,0.5],[1,0.5]];portConstraint=eastwest;" parent="pwKjhXbv3Zli7kEAeJ75-37" vertex="1"><mxGeometry y="190" width="330" height="26" as="geometry"/></mxCell><mxCell id="pwKjhXbv3Zli7kEAeJ75-47" value="NestingDto" style="swimlane;fontStyle=1;align=center;verticalAlign=top;childLayout=stackLayout;horizontal=1;startSize=26;horizontalStack=0;resizeParent=1;resizeParentMax=0;resizeLast=0;collapsible=1;marginBottom=0;labelBackgroundColor=none;fontSize=12;fillColor=none;" parent="1" vertex="1"><mxGeometry x="635.5" y="1130" width="380" height="216" as="geometry"/></mxCell><mxCell id="pwKjhXbv3Zli7kEAeJ75-48" value="- id: Long" style="text;strokeColor=none;fillColor=none;align=left;verticalAlign=top;spacingLeft=4;spacingRight=4;overflow=hidden;rotatable=0;points=[[0,0.5],[1,0.5]];portConstraint=eastwest;labelBackgroundColor=none;fontSize=12;" parent="pwKjhXbv3Zli7kEAeJ75-47" vertex="1"><mxGeometry y="26" width="380" height="26" as="geometry"/></mxCell><mxCell id="pwKjhXbv3Zli7kEAeJ75-49" value="- nestBoxId: String" style="text;strokeColor=none;fillColor=none;align=left;verticalAlign=top;spacingLeft=4;spacingRight=4;overflow=hidden;rotatable=0;points=[[0,0.5],[1,0.5]];portConstraint=eastwest;labelBackgroundColor=none;fontSize=12;" parent="pwKjhXbv3Zli7kEAeJ75-47" vertex="1"><mxGeometry y="52" width="380" height="26" as="geometry"/></mxCell><mxCell id="pwKjhXbv3Zli7kEAeJ75-50" value="- NestingParametersDto: NestingParametersDto" style="text;strokeColor=none;fillColor=none;align=left;verticalAlign=top;spacingLeft=4;spacingRight=4;overflow=hidden;rotatable=0;points=[[0,0.5],[1,0.5]];portConstraint=eastwest;labelBackgroundColor=none;fontSize=12;" parent="pwKjhXbv3Zli7kEAeJ75-47" vertex="1"><mxGeometry y="78" width="380" height="26" as="geometry"/></mxCell><mxCell id="pwKjhXbv3Zli7kEAeJ75-51" value="- notes: String" style="text;strokeColor=none;fillColor=none;align=left;verticalAlign=top;spacingLeft=4;spacingRight=4;overflow=hidden;rotatable=0;points=[[0,0.5],[1,0.5]];portConstraint=eastwest;labelBackgroundColor=none;fontSize=12;" parent="pwKjhXbv3Zli7kEAeJ75-47" vertex="1"><mxGeometry y="104" width="380" height="26" as="geometry"/></mxCell><mxCell id="pwKjhXbv3Zli7kEAeJ75-52" value="- observer: String" style="text;strokeColor=none;fillColor=none;align=left;verticalAlign=top;spacingLeft=4;spacingRight=4;overflow=hidden;rotatable=0;points=[[0,0.5],[1,0.5]];portConstraint=eastwest;labelBackgroundColor=none;fontSize=12;" parent="pwKjhXbv3Zli7kEAeJ75-47" vertex="1"><mxGeometry y="130" width="380" height="26" as="geometry"/></mxCell><mxCell id="pwKjhXbv3Zli7kEAeJ75-53" value="" style="line;strokeWidth=1;fillColor=none;align=left;verticalAlign=middle;spacingTop=-1;spacingLeft=3;spacingRight=3;rotatable=0;labelPosition=right;points=[];portConstraint=eastwest;labelBackgroundColor=none;fontSize=12;" parent="pwKjhXbv3Zli7kEAeJ75-47" vertex="1"><mxGeometry y="156" width="380" height="8" as="geometry"/></mxCell><mxCell id="pwKjhXbv3Zli7kEAeJ75-54" value="+ Nesting()" style="text;strokeColor=none;fillColor=none;align=left;verticalAlign=top;spacingLeft=4;spacingRight=4;overflow=hidden;rotatable=0;points=[[0,0.5],[1,0.5]];portConstraint=eastwest;labelBackgroundColor=none;fontSize=12;" parent="pwKjhXbv3Zli7kEAeJ75-47" vertex="1"><mxGeometry y="164" width="380" height="26" as="geometry"/></mxCell><mxCell id="pwKjhXbv3Zli7kEAeJ75-55" value="+ Nesting(String, LocalDate, NestingParametersDto, String, String)" style="text;strokeColor=none;fillColor=none;align=left;verticalAlign=top;spacingLeft=4;spacingRight=4;overflow=hidden;rotatable=0;points=[[0,0.5],[1,0.5]];portConstraint=eastwest;labelBackgroundColor=none;fontSize=12;" parent="pwKjhXbv3Zli7kEAeJ75-47" vertex="1"><mxGeometry y="190" width="380" height="26" as="geometry"/></mxCell><mxCell id="pwKjhXbv3Zli7kEAeJ75-56" value="&lt;br&gt;&lt;b&gt;&lt;font style=&quot;font-size: 20px;&quot;&gt;Application&lt;/font&gt;&lt;/b&gt;" style="text;html=1;strokeColor=none;fillColor=none;spacing=5;spacingTop=-27;whiteSpace=wrap;overflow=hidden;rounded=0;labelBackgroundColor=none;fontSize=12;align=center;verticalAlign=middle;" parent="1" vertex="1"><mxGeometry x="730.5" y="1390" width="190" height="30" as="geometry"/></mxCell><mxCell id="pwKjhXbv3Zli7kEAeJ75-57" value="NestBoxController" style="swimlane;fontStyle=1;align=center;verticalAlign=top;childLayout=stackLayout;horizontal=1;startSize=26;horizontalStack=0;resizeParent=1;resizeParentMax=0;resizeLast=0;collapsible=1;marginBottom=0;fillColor=none;" parent="1" vertex="1"><mxGeometry x="80" y="1450" width="430" height="164" as="geometry"/></mxCell><mxCell id="pwKjhXbv3Zli7kEAeJ75-58" value="- service: NestBoxService" style="text;strokeColor=none;fillColor=none;align=left;verticalAlign=top;spacingLeft=4;spacingRight=4;overflow=hidden;rotatable=0;points=[[0,0.5],[1,0.5]];portConstraint=eastwest;" parent="pwKjhXbv3Zli7kEAeJ75-57" vertex="1"><mxGeometry y="26" width="430" height="26" as="geometry"/></mxCell><mxCell id="pwKjhXbv3Zli7kEAeJ75-59" value="" style="line;strokeWidth=1;fillColor=none;align=left;verticalAlign=middle;spacingTop=-1;spacingLeft=3;spacingRight=3;rotatable=0;labelPosition=right;points=[];portConstraint=eastwest;" parent="pwKjhXbv3Zli7kEAeJ75-57" vertex="1"><mxGeometry y="52" width="430" height="8" as="geometry"/></mxCell><mxCell id="pwKjhXbv3Zli7kEAeJ75-60" value="+ saveNestBox(NestBoxPlacemnetCommand): NestBoxDto" style="text;strokeColor=none;fillColor=none;align=left;verticalAlign=top;spacingLeft=4;spacingRight=4;overflow=hidden;rotatable=0;points=[[0,0.5],[1,0.5]];portConstraint=eastwest;" parent="pwKjhXbv3Zli7kEAeJ75-57" vertex="1"><mxGeometry y="60" width="430" height="26" as="geometry"/></mxCell><mxCell id="pwKjhXbv3Zli7kEAeJ75-85" value="+ findNestBoxes(Optional&lt;String&gt;, Optional&lt;Boolean&gt;): List&lt;NestBoxDto&gt;" style="text;strokeColor=none;fillColor=none;align=left;verticalAlign=top;spacingLeft=4;spacingRight=4;overflow=hidden;rotatable=0;points=[[0,0.5],[1,0.5]];portConstraint=eastwest;" parent="pwKjhXbv3Zli7kEAeJ75-57" vertex="1"><mxGeometry y="86" width="430" height="26" as="geometry"/></mxCell><mxCell id="pwKjhXbv3Zli7kEAeJ75-86" value="+ updateNestBox(String, NestBoxRepairCommand): NestBoxDto" style="text;strokeColor=none;fillColor=none;align=left;verticalAlign=top;spacingLeft=4;spacingRight=4;overflow=hidden;rotatable=0;points=[[0,0.5],[1,0.5]];portConstraint=eastwest;" parent="pwKjhXbv3Zli7kEAeJ75-57" vertex="1"><mxGeometry y="112" width="430" height="26" as="geometry"/></mxCell><mxCell id="pwKjhXbv3Zli7kEAeJ75-87" value="+ updateNestBox(String, SurveyCommand): NestBoxDto" style="text;strokeColor=none;fillColor=none;align=left;verticalAlign=top;spacingLeft=4;spacingRight=4;overflow=hidden;rotatable=0;points=[[0,0.5],[1,0.5]];portConstraint=eastwest;" parent="pwKjhXbv3Zli7kEAeJ75-57" vertex="1"><mxGeometry y="138" width="430" height="26" as="geometry"/></mxCell><mxCell id="pwKjhXbv3Zli7kEAeJ75-61" value="NestBoxService" style="swimlane;fontStyle=1;align=center;verticalAlign=top;childLayout=stackLayout;horizontal=1;startSize=26;horizontalStack=0;resizeParent=1;resizeParentMax=0;resizeLast=0;collapsible=1;marginBottom=0;fillColor=none;" parent="1" vertex="1"><mxGeometry x="700" y="1450" width="370" height="86" as="geometry"/></mxCell><mxCell id="pwKjhXbv3Zli7kEAeJ75-62" value="- repository:NestBoxRepository" style="text;strokeColor=none;fillColor=none;align=left;verticalAlign=top;spacingLeft=4;spacingRight=4;overflow=hidden;rotatable=0;points=[[0,0.5],[1,0.5]];portConstraint=eastwest;" parent="pwKjhXbv3Zli7kEAeJ75-61" vertex="1"><mxGeometry y="26" width="370" height="26" as="geometry"/></mxCell><mxCell id="pwKjhXbv3Zli7kEAeJ75-63" value="" style="line;strokeWidth=1;fillColor=none;align=left;verticalAlign=middle;spacingTop=-1;spacingLeft=3;spacingRight=3;rotatable=0;labelPosition=right;points=[];portConstraint=eastwest;" parent="pwKjhXbv3Zli7kEAeJ75-61" vertex="1"><mxGeometry y="52" width="370" height="8" as="geometry"/></mxCell><mxCell id="pwKjhXbv3Zli7kEAeJ75-88" value="+ saveNestBox(NestBoxPlacemnetCommand): NestBoxDto" style="text;strokeColor=none;fillColor=none;align=left;verticalAlign=top;spacingLeft=4;spacingRight=4;overflow=hidden;rotatable=0;points=[[0,0.5],[1,0.5]];portConstraint=eastwest;" parent="pwKjhXbv3Zli7kEAeJ75-61" vertex="1"><mxGeometry y="60" width="370" height="26" as="geometry"/></mxCell><mxCell id="pwKjhXbv3Zli7kEAeJ75-65" value="&lt;p style=&quot;margin:0px;margin-top:4px;text-align:center;&quot;&gt;&lt;i&gt;&amp;lt;&amp;lt;Interface&amp;gt;&amp;gt;&lt;/i&gt;&lt;br&gt;&lt;b&gt;NestBoxRepository&lt;/b&gt;&lt;/p&gt;&lt;hr size=&quot;1&quot;&gt;&lt;p style=&quot;margin:0px;margin-left:4px;&quot;&gt;+ field1: Type&lt;br&gt;+ field2: Type&lt;/p&gt;&lt;hr size=&quot;1&quot;&gt;&lt;p style=&quot;margin:0px;margin-left:4px;&quot;&gt;+ method1(Type): Type&lt;br&gt;+ method2(Type, Type): Type&lt;/p&gt;" style="verticalAlign=top;align=left;overflow=fill;fontSize=12;fontFamily=Helvetica;html=1;fillColor=none;" parent="1" vertex="1"><mxGeometry x="1393" y="1450" width="190" height="140" as="geometry"/></mxCell><mxCell id="pwKjhXbv3Zli7kEAeJ75-66" value="constructor injection" style="html=1;verticalAlign=bottom;endArrow=open;dashed=1;endSize=8;rounded=0;exitX=-0.006;exitY=0.116;exitDx=0;exitDy=0;exitPerimeter=0;entryX=1;entryY=0.154;entryDx=0;entryDy=0;entryPerimeter=0;" parent="1" source="pwKjhXbv3Zli7kEAeJ75-61" target="pwKjhXbv3Zli7kEAeJ75-58" edge="1"><mxGeometry x="-0.4438" relative="1" as="geometry"><mxPoint x="710" y="1480" as="sourcePoint"/><mxPoint x="630" y="1480" as="targetPoint"/><Array as="points"><mxPoint x="590" y="1460"/><mxPoint x="590" y="1480"/></Array><mxPoint as="offset"/></mxGeometry></mxCell><mxCell id="pwKjhXbv3Zli7kEAeJ75-67" value="constructor injection" style="html=1;verticalAlign=bottom;endArrow=open;dashed=1;endSize=8;rounded=0;exitX=-0.011;exitY=0.143;exitDx=0;exitDy=0;exitPerimeter=0;entryX=1;entryY=0.5;entryDx=0;entryDy=0;" parent="1" source="pwKjhXbv3Zli7kEAeJ75-65" target="pwKjhXbv3Zli7kEAeJ75-62" edge="1"><mxGeometry x="-0.473" relative="1" as="geometry"><mxPoint x="1425.4560000000001" y="1469.976" as="sourcePoint"/><mxPoint x="1030" y="1493" as="targetPoint"/><Array as="points"><mxPoint x="1180.5" y="1470"/><mxPoint x="1180.5" y="1490"/></Array><mxPoint as="offset"/></mxGeometry></mxCell><mxCell id="pwKjhXbv3Zli7kEAeJ75-71" value="NestingController" style="swimlane;fontStyle=1;align=center;verticalAlign=top;childLayout=stackLayout;horizontal=1;startSize=26;horizontalStack=0;resizeParent=1;resizeParentMax=0;resizeLast=0;collapsible=1;marginBottom=0;fillColor=none;" parent="1" vertex="1"><mxGeometry x="80" y="1690" width="450" height="112" as="geometry"/></mxCell><mxCell id="pwKjhXbv3Zli7kEAeJ75-72" value="- service: NestingService" style="text;strokeColor=none;fillColor=none;align=left;verticalAlign=top;spacingLeft=4;spacingRight=4;overflow=hidden;rotatable=0;points=[[0,0.5],[1,0.5]];portConstraint=eastwest;" parent="pwKjhXbv3Zli7kEAeJ75-71" vertex="1"><mxGeometry y="26" width="450" height="26" as="geometry"/></mxCell><mxCell id="pwKjhXbv3Zli7kEAeJ75-73" value="" style="line;strokeWidth=1;fillColor=none;align=left;verticalAlign=middle;spacingTop=-1;spacingLeft=3;spacingRight=3;rotatable=0;labelPosition=right;points=[];portConstraint=eastwest;" parent="pwKjhXbv3Zli7kEAeJ75-71" vertex="1"><mxGeometry y="52" width="450" height="8" as="geometry"/></mxCell><mxCell id="pwKjhXbv3Zli7kEAeJ75-75" value="+ saveNesting(SurveyCommand): NestingDto" style="text;strokeColor=none;fillColor=none;align=left;verticalAlign=top;spacingLeft=4;spacingRight=4;overflow=hidden;rotatable=0;points=[[0,0.5],[1,0.5]];portConstraint=eastwest;" parent="pwKjhXbv3Zli7kEAeJ75-71" vertex="1"><mxGeometry y="60" width="450" height="26" as="geometry"/></mxCell><mxCell id="pwKjhXbv3Zli7kEAeJ75-76" value="+ findNestings(Optional&lt;String&gt;, Optional&lt;Integer&gt;): List&lt;NestingDto&gt;" style="text;strokeColor=none;fillColor=none;align=left;verticalAlign=top;spacingLeft=4;spacingRight=4;overflow=hidden;rotatable=0;points=[[0,0.5],[1,0.5]];portConstraint=eastwest;" parent="pwKjhXbv3Zli7kEAeJ75-71" vertex="1"><mxGeometry y="86" width="450" height="26" as="geometry"/></mxCell><mxCell id="pwKjhXbv3Zli7kEAeJ75-78" value="NestingService" style="swimlane;fontStyle=1;align=center;verticalAlign=top;childLayout=stackLayout;horizontal=1;startSize=26;horizontalStack=0;resizeParent=1;resizeParentMax=0;resizeLast=0;collapsible=1;marginBottom=0;fillColor=none;" parent="1" vertex="1"><mxGeometry x="738.5" y="1690" width="174" height="86" as="geometry"/></mxCell><mxCell id="pwKjhXbv3Zli7kEAeJ75-79" value="- repository:NestBoxRepository" style="text;strokeColor=none;fillColor=none;align=left;verticalAlign=top;spacingLeft=4;spacingRight=4;overflow=hidden;rotatable=0;points=[[0,0.5],[1,0.5]];portConstraint=eastwest;" parent="pwKjhXbv3Zli7kEAeJ75-78" vertex="1"><mxGeometry y="26" width="174" height="26" as="geometry"/></mxCell><mxCell id="pwKjhXbv3Zli7kEAeJ75-80" value="" style="line;strokeWidth=1;fillColor=none;align=left;verticalAlign=middle;spacingTop=-1;spacingLeft=3;spacingRight=3;rotatable=0;labelPosition=right;points=[];portConstraint=eastwest;" parent="pwKjhXbv3Zli7kEAeJ75-78" vertex="1"><mxGeometry y="52" width="174" height="8" as="geometry"/></mxCell><mxCell id="pwKjhXbv3Zli7kEAeJ75-81" value="+ method(type): type" style="text;strokeColor=none;fillColor=none;align=left;verticalAlign=top;spacingLeft=4;spacingRight=4;overflow=hidden;rotatable=0;points=[[0,0.5],[1,0.5]];portConstraint=eastwest;" parent="pwKjhXbv3Zli7kEAeJ75-78" vertex="1"><mxGeometry y="60" width="174" height="26" as="geometry"/></mxCell><mxCell id="pwKjhXbv3Zli7kEAeJ75-82" value="&lt;p style=&quot;margin:0px;margin-top:4px;text-align:center;&quot;&gt;&lt;i&gt;&amp;lt;&amp;lt;Interface&amp;gt;&amp;gt;&lt;/i&gt;&lt;br&gt;&lt;b&gt;NestingRepository&lt;/b&gt;&lt;/p&gt;&lt;hr size=&quot;1&quot;&gt;&lt;p style=&quot;margin:0px;margin-left:4px;&quot;&gt;+ field1: Type&lt;br&gt;+ field2: Type&lt;/p&gt;&lt;hr size=&quot;1&quot;&gt;&lt;p style=&quot;margin:0px;margin-left:4px;&quot;&gt;+ method1(Type): Type&lt;br&gt;+ method2(Type, Type): Type&lt;/p&gt;" style="verticalAlign=top;align=left;overflow=fill;fontSize=12;fontFamily=Helvetica;html=1;fillColor=none;" parent="1" vertex="1"><mxGeometry x="1393" y="1690" width="190" height="140" as="geometry"/></mxCell><mxCell id="pwKjhXbv3Zli7kEAeJ75-83" value="constructor injection" style="html=1;verticalAlign=bottom;endArrow=open;dashed=1;endSize=8;rounded=0;exitX=-0.004;exitY=0.23;exitDx=0;exitDy=0;exitPerimeter=0;entryX=0.999;entryY=0.395;entryDx=0;entryDy=0;entryPerimeter=0;" parent="1" source="pwKjhXbv3Zli7kEAeJ75-78" target="pwKjhXbv3Zli7kEAeJ75-72" edge="1"><mxGeometry x="-0.3952" relative="1" as="geometry"><mxPoint x="744.9560000000001" y="1709.9959999999996" as="sourcePoint"/><mxPoint x="530" y="1730" as="targetPoint"/><Array as="points"><mxPoint x="590" y="1710.02"/><mxPoint x="590" y="1726"/></Array><mxPoint as="offset"/></mxGeometry></mxCell><mxCell id="pwKjhXbv3Zli7kEAeJ75-84" value="constructor injection" style="html=1;verticalAlign=bottom;endArrow=open;dashed=1;endSize=8;rounded=0;entryX=1.001;entryY=0.698;entryDx=0;entryDy=0;entryPerimeter=0;" parent="1" target="pwKjhXbv3Zli7kEAeJ75-79" edge="1"><mxGeometry x="-0.5616" relative="1" as="geometry"><mxPoint x="1390" y="1710" as="sourcePoint"/><mxPoint x="912.5" y="1730.004" as="targetPoint"/><Array as="points"><mxPoint x="1172.5" y="1710"/><mxPoint x="1173" y="1734"/></Array><mxPoint as="offset"/></mxGeometry></mxCell><mxCell id="rgfpXqabRpCKf48iCOnj-2" value="" style="endArrow=diamondThin;endFill=1;endSize=24;html=1;rounded=0;fontSize=10;entryX=-0.005;entryY=0.65;entryDx=0;entryDy=0;entryPerimeter=0;exitX=0.999;exitY=0.145;exitDx=0;exitDy=0;exitPerimeter=0;" parent="1" source="0lpxt2IIvBe8jApbLc8z-38" target="0lpxt2IIvBe8jApbLc8z-42" edge="1"><mxGeometry width="160" relative="1" as="geometry"><mxPoint x="830" y="90" as="sourcePoint"/><mxPoint x="900" y="200" as="targetPoint"/><Array as="points"><mxPoint x="860" y="90"/><mxPoint x="860" y="210"/></Array></mxGeometry></mxCell><mxCell id="rgfpXqabRpCKf48iCOnj-4" value="" style="endArrow=classic;html=1;rounded=0;fontSize=10;entryX=0.001;entryY=0.603;entryDx=0;entryDy=0;entryPerimeter=0;exitX=0.998;exitY=0.091;exitDx=0;exitDy=0;exitPerimeter=0;" parent="1" source="TTTDpmGdwki_0RYDSrgb-94" target="0lpxt2IIvBe8jApbLc8z-43" edge="1"><mxGeometry width="50" height="50" relative="1" as="geometry"><mxPoint x="850" y="500" as="sourcePoint"/><mxPoint x="900" y="310" as="targetPoint"/><Array as="points"><mxPoint x="850" y="460"/><mxPoint x="850" y="260"/></Array></mxGeometry></mxCell><mxCell id="rgfpXqabRpCKf48iCOnj-5" value="" style="endArrow=diamondThin;endFill=1;endSize=24;html=1;rounded=0;fontSize=10;entryX=0;entryY=0.811;entryDx=0;entryDy=0;entryPerimeter=0;exitX=1.002;exitY=0.061;exitDx=0;exitDy=0;exitPerimeter=0;" parent="1" source="0lpxt2IIvBe8jApbLc8z-34" target="0lpxt2IIvBe8jApbLc8z-15" edge="1"><mxGeometry width="160" relative="1" as="geometry"><mxPoint x="820" y="280" as="sourcePoint"/><mxPoint x="720" y="360" as="targetPoint"/><Array as="points"><mxPoint x="840" y="250"/><mxPoint x="840" y="240"/></Array></mxGeometry></mxCell><mxCell id="rgfpXqabRpCKf48iCOnj-6" value="" style="endArrow=diamondThin;endFill=1;endSize=24;html=1;rounded=0;fontSize=10;exitX=0.999;exitY=0.074;exitDx=0;exitDy=0;exitPerimeter=0;entryX=0;entryY=0.658;entryDx=0;entryDy=0;entryPerimeter=0;" parent="1" source="0lpxt2IIvBe8jApbLc8z-29" target="0lpxt2IIvBe8jApbLc8z-39" edge="1"><mxGeometry width="160" relative="1" as="geometry"><mxPoint x="590" y="350" as="sourcePoint"/><mxPoint x="570" y="140" as="targetPoint"/><Array as="points"><mxPoint x="520" y="90"/><mxPoint x="520" y="140"/></Array></mxGeometry></mxCell><mxCell id="rgfpXqabRpCKf48iCOnj-7" value="" style="endArrow=classic;html=1;rounded=0;fontSize=10;entryX=0.999;entryY=0.226;entryDx=0;entryDy=0;entryPerimeter=0;exitX=0.998;exitY=0.127;exitDx=0;exitDy=0;exitPerimeter=0;" parent="1" source="TTTDpmGdwki_0RYDSrgb-84" target="0lpxt2IIvBe8jApbLc8z-14" edge="1"><mxGeometry width="50" height="50" relative="1" as="geometry"><mxPoint x="469.0000000000001" y="440" as="sourcePoint"/><mxPoint x="591.5965" y="240.65799999999987" as="targetPoint"/><Array as="points"><mxPoint x="520" y="421"/><mxPoint x="520" y="210"/></Array></mxGeometry></mxCell><mxCell id="rgfpXqabRpCKf48iCOnj-8" value="" style="endArrow=classic;html=1;rounded=0;fontSize=10;entryX=-0.001;entryY=0.464;entryDx=0;entryDy=0;entryPerimeter=0;exitX=0.999;exitY=0.073;exitDx=0;exitDy=0;exitPerimeter=0;" parent="1" source="TTTDpmGdwki_0RYDSrgb-71" target="0lpxt2IIvBe8jApbLc8z-17" edge="1"><mxGeometry width="50" height="50" relative="1" as="geometry"><mxPoint x="207" y="408" as="sourcePoint"/><mxPoint x="329.5965" y="208.67799999999988" as="targetPoint"/><Array as="points"><mxPoint x="270" y="410"/><mxPoint x="270" y="308"/><mxPoint x="270" y="190"/></Array></mxGeometry></mxCell><mxCell id="rgfpXqabRpCKf48iCOnj-9" value="" style="endArrow=diamondThin;endFill=1;endSize=24;html=1;rounded=0;fontSize=10;entryX=-0.001;entryY=0.385;entryDx=0;entryDy=0;entryPerimeter=0;exitX=1.002;exitY=0.033;exitDx=0;exitDy=0;exitPerimeter=0;" parent="1" source="TTTDpmGdwki_0RYDSrgb-164" target="0lpxt2IIvBe8jApbLc8z-11" edge="1"><mxGeometry width="160" relative="1" as="geometry"><mxPoint x="250" y="80" as="sourcePoint"/><mxPoint x="340" y="129.12799999999996" as="targetPoint"/><Array as="points"><mxPoint x="260" y="80"/><mxPoint x="260" y="110"/></Array></mxGeometry></mxCell></root></mxGraphModel></diagram></mxfile>